<svg xmlns="http://www.w3.org/2000/svg" xmlns:xlink="http://www.w3.org/1999/xlink" width="2000" zoomAndPan="magnify" viewBox="0 0 1500 749.999995" height="1000" preserveAspectRatio="xMidYMid meet" version="1.0"><defs><g/><clipPath id="dd075be77b"><path d="M 1041 260.109375 L 1500 260.109375 L 1500 750 L 1041 750 Z M 1041 260.109375 " clip-rule="nonzero"/></clipPath><clipPath id="42d8f26998"><path d="M 0.21875 0 L 426 0 L 426 559.050781 L 0.21875 559.050781 Z M 0.21875 0 " clip-rule="nonzero"/></clipPath></defs><rect x="-150" width="1800" fill="#ffffff" y="-74.999999" height="899.999994" fill-opacity="1"/><rect x="-150" width="1800" fill="#00b4d8" y="-74.999999" height="899.999994" fill-opacity="1"/><g clip-path="url(#dd075be77b)"><path fill="#fbfbf8" d="M 1041.648438 789.632812 C 1040.632812 756.050781 1056.503906 722.410156 1083.054688 701.839844 C 1109.617188 681.265625 1146.144531 674.316406 1178.398438 683.679688 C 1188.542969 686.628906 1198.546875 691.148438 1208.230469 695.53125 C 1226.71875 703.886719 1245.835938 712.527344 1265.839844 709.875 C 1280.789062 707.898438 1294.933594 698.085938 1303.667969 683.644531 C 1312.40625 669.203125 1314.535156 652.125 1309.363281 637.96875 C 1307.207031 632.085938 1303.964844 626.378906 1300.828125 620.851562 C 1295.183594 610.90625 1289.335938 600.632812 1289.867188 589.140625 C 1290.863281 567.738281 1314.0625 553.5 1335.390625 550.953125 C 1345.371094 549.757812 1355.585938 550.171875 1365.46875 550.574219 C 1376.5625 551.023438 1388.042969 551.488281 1399.121094 549.664062 C 1433.28125 544.03125 1461.902344 515.113281 1467.171875 480.890625 C 1471.316406 454 1462.199219 427.332031 1451.664062 400.105469 L 1451.003906 398.390625 C 1441.117188 372.84375 1430.890625 346.4375 1433.035156 319.140625 C 1435.175781 291.820312 1454.53125 262.265625 1483.175781 260.097656 L 1483.269531 261.28125 C 1455.25 263.402344 1436.324219 292.414062 1434.21875 319.238281 C 1432.097656 346.261719 1442.265625 372.550781 1452.113281 397.964844 L 1452.777344 399.679688 C 1463.371094 427.058594 1472.535156 453.890625 1468.355469 481.070312 C 1463.003906 515.773438 1433.980469 545.117188 1399.335938 550.824219 C 1388.136719 552.671875 1376.597656 552.195312 1365.433594 551.746094 C 1355.597656 551.34375 1345.429688 550.929688 1335.546875 552.113281 C 1314.703125 554.601562 1292.035156 568.4375 1291.0625 589.1875 C 1290.542969 600.335938 1296.046875 610.019531 1301.871094 620.257812 C 1305.03125 625.824219 1308.296875 631.5625 1310.488281 637.550781 C 1315.789062 652.054688 1313.625 669.511719 1304.699219 684.261719 C 1295.773438 699.007812 1281.308594 709.023438 1266.003906 711.046875 C 1245.65625 713.734375 1226.386719 705.035156 1207.753906 696.605469 C 1198.109375 692.25 1188.140625 687.742188 1178.082031 684.816406 C 1146.179688 675.550781 1110.042969 682.425781 1083.789062 702.773438 C 1057.535156 723.121094 1041.828125 756.394531 1042.832031 789.597656 Z M 1052.90625 799.363281 C 1051.898438 766.160156 1067.59375 732.886719 1093.847656 712.550781 C 1120.105469 692.214844 1156.242188 685.328125 1188.140625 694.59375 C 1198.203125 697.519531 1208.167969 702.027344 1217.816406 706.382812 C 1236.460938 714.8125 1255.730469 723.511719 1276.066406 720.824219 C 1291.371094 718.800781 1305.835938 708.785156 1314.761719 694.039062 C 1323.683594 679.289062 1325.851562 661.828125 1320.546875 647.328125 C 1318.359375 641.351562 1315.09375 635.601562 1311.929688 630.035156 C 1306.109375 619.796875 1300.605469 610.113281 1301.125 598.964844 C 1302.09375 578.214844 1324.761719 564.378906 1345.605469 561.890625 C 1355.492188 560.707031 1365.660156 561.121094 1375.496094 561.523438 C 1386.65625 561.972656 1398.1875 562.449219 1409.394531 560.601562 C 1444.042969 554.882812 1473.078125 525.550781 1478.417969 490.847656 C 1482.605469 463.667969 1473.433594 436.835938 1462.839844 409.457031 L 1462.175781 407.765625 C 1452.328125 382.339844 1442.148438 356.050781 1444.277344 329.027344 C 1446.386719 302.203125 1465.3125 273.191406 1493.332031 271.070312 L 1493.238281 269.886719 C 1464.578125 272.054688 1445.238281 301.609375 1443.09375 328.929688 C 1440.953125 356.226562 1451.179688 382.644531 1461.074219 408.191406 L 1461.738281 409.894531 C 1472.273438 437.121094 1481.386719 463.789062 1477.246094 490.679688 C 1471.976562 524.902344 1443.355469 553.820312 1409.195312 559.453125 C 1398.117188 561.277344 1386.632812 560.816406 1375.542969 560.363281 C 1365.660156 559.960938 1355.445312 559.546875 1345.464844 560.742188 C 1324.148438 563.289062 1300.945312 577.539062 1299.941406 598.929688 C 1299.40625 610.421875 1305.242188 620.707031 1310.902344 630.640625 C 1314.039062 636.15625 1317.28125 641.863281 1319.4375 647.757812 C 1324.609375 661.925781 1322.488281 678.992188 1313.742188 693.433594 C 1305.007812 707.875 1290.863281 717.675781 1275.910156 719.664062 C 1255.90625 722.328125 1236.792969 713.675781 1218.300781 705.320312 C 1208.621094 700.949219 1198.617188 696.417969 1188.472656 693.46875 C 1156.21875 684.09375 1119.675781 691.054688 1093.117188 711.628906 C 1066.554688 732.199219 1050.691406 765.839844 1051.710938 799.421875 L 1052.894531 799.386719 Z M 1062.980469 809.128906 C 1061.972656 775.925781 1077.667969 742.652344 1103.933594 722.316406 C 1130.199219 701.96875 1166.328125 695.089844 1198.226562 704.359375 C 1208.289062 707.285156 1218.253906 711.792969 1227.902344 716.148438 C 1246.542969 724.578125 1265.816406 733.277344 1286.152344 730.589844 C 1301.457031 728.566406 1315.921875 718.539062 1324.84375 703.804688 C 1333.769531 689.054688 1335.9375 671.59375 1330.632812 657.105469 C 1328.445312 651.128906 1325.175781 645.375 1322.015625 639.8125 C 1316.191406 629.574219 1310.6875 619.890625 1311.210938 608.742188 C 1312.179688 587.992188 1334.847656 574.15625 1355.691406 571.667969 C 1365.574219 570.484375 1375.742188 570.898438 1385.582031 571.300781 C 1396.742188 571.75 1408.273438 572.226562 1419.480469 570.378906 C 1454.128906 564.660156 1483.164062 535.328125 1488.5 500.625 C 1492.691406 473.445312 1483.519531 446.613281 1472.925781 419.234375 L 1472.261719 417.542969 C 1462.414062 392.117188 1452.234375 365.824219 1454.363281 338.800781 C 1456.472656 311.980469 1475.398438 282.96875 1503.417969 280.847656 L 1503.320312 279.664062 C 1474.664062 281.832031 1455.324219 311.386719 1453.179688 338.707031 C 1451.039062 366.003906 1461.265625 392.421875 1471.160156 417.96875 L 1471.824219 419.671875 C 1482.359375 446.898438 1491.472656 473.566406 1487.328125 500.457031 C 1482.0625 534.679688 1453.441406 563.597656 1419.28125 569.230469 C 1408.199219 571.054688 1396.71875 570.589844 1385.628906 570.140625 C 1375.742188 569.738281 1365.527344 569.324219 1355.550781 570.519531 C 1334.230469 573.066406 1311.03125 587.316406 1310.027344 608.707031 C 1309.492188 620.199219 1315.328125 630.484375 1320.988281 640.417969 C 1324.125 645.933594 1327.367188 651.636719 1329.519531 657.535156 C 1334.695312 671.703125 1332.574219 688.769531 1323.828125 703.210938 C 1315.09375 717.652344 1300.945312 727.453125 1285.996094 729.441406 C 1265.992188 732.105469 1246.875 723.453125 1228.386719 715.097656 C 1218.703125 710.726562 1208.703125 706.195312 1198.558594 703.246094 C 1166.304688 693.871094 1129.761719 700.832031 1103.210938 721.394531 C 1076.652344 741.964844 1060.789062 775.605469 1061.808594 809.1875 L 1062.992188 809.152344 Z M 1073.050781 818.894531 C 1072.046875 785.691406 1087.742188 752.417969 1114.007812 732.082031 C 1140.273438 711.746094 1176.398438 704.855469 1208.300781 714.125 C 1218.359375 717.050781 1228.328125 721.558594 1237.976562 725.914062 C 1256.617188 734.34375 1275.898438 743.042969 1296.222656 740.355469 C 1311.527344 738.332031 1325.992188 728.316406 1334.917969 713.570312 C 1343.84375 698.820312 1346.007812 681.359375 1340.707031 666.859375 C 1338.515625 660.882812 1335.25 655.128906 1332.089844 649.566406 C 1326.265625 639.328125 1320.761719 629.644531 1321.28125 618.496094 C 1322.253906 597.746094 1344.921875 583.90625 1365.765625 581.421875 C 1375.648438 580.238281 1385.816406 580.652344 1395.652344 581.054688 C 1406.816406 581.503906 1418.34375 581.980469 1429.554688 580.132812 C 1464.199219 574.414062 1493.238281 545.082031 1498.574219 510.378906 C 1502.765625 483.199219 1493.589844 456.367188 1482.996094 428.988281 L 1482.347656 427.292969 C 1472.5 401.871094 1462.320312 375.578125 1464.449219 348.554688 C 1466.554688 321.734375 1485.484375 292.722656 1513.5 290.601562 L 1513.40625 289.417969 C 1484.75 291.585938 1465.40625 321.140625 1463.265625 348.460938 C 1461.125 375.757812 1471.351562 402.175781 1481.246094 427.722656 L 1481.898438 429.414062 C 1492.429688 456.636719 1501.546875 483.308594 1497.402344 510.199219 C 1492.136719 544.421875 1463.515625 573.335938 1429.351562 578.972656 C 1418.273438 580.796875 1406.792969 580.332031 1395.699219 579.882812 C 1385.816406 579.480469 1375.601562 579.066406 1365.625 580.261719 C 1344.304688 582.808594 1321.105469 597.058594 1320.097656 618.449219 C 1319.566406 629.941406 1325.402344 640.226562 1331.058594 650.160156 C 1334.195312 655.675781 1337.441406 661.378906 1339.59375 667.273438 C 1344.777344 681.445312 1342.648438 698.511719 1333.902344 712.953125 C 1325.164062 727.394531 1311.019531 737.195312 1296.070312 739.183594 C 1276.066406 741.847656 1256.949219 733.195312 1238.460938 724.835938 C 1228.777344 720.457031 1218.777344 715.9375 1208.632812 712.988281 C 1176.375 703.613281 1139.835938 710.574219 1113.285156 731.148438 C 1086.722656 751.71875 1070.863281 785.359375 1071.878906 818.941406 L 1073.0625 818.90625 Z M 1083.125 828.660156 C 1082.121094 795.457031 1097.816406 762.183594 1124.082031 741.847656 C 1150.347656 721.5 1186.472656 714.621094 1218.375 723.890625 C 1228.433594 726.8125 1238.402344 731.324219 1248.046875 735.679688 C 1266.691406 744.109375 1285.972656 752.808594 1306.296875 750.121094 C 1321.601562 748.097656 1336.066406 738.082031 1344.992188 723.335938 C 1353.917969 708.585938 1356.082031 691.125 1350.78125 676.625 C 1348.589844 670.648438 1345.324219 664.894531 1342.164062 659.332031 C 1336.339844 649.09375 1330.835938 639.410156 1331.355469 628.261719 C 1332.328125 607.511719 1354.992188 593.671875 1375.839844 591.1875 C 1385.710938 590.003906 1395.890625 590.417969 1405.726562 590.820312 C 1416.890625 591.269531 1428.417969 591.742188 1439.628906 589.898438 C 1474.273438 584.179688 1503.308594 554.847656 1508.648438 520.144531 C 1512.839844 492.964844 1503.664062 466.132812 1493.070312 438.753906 L 1492.40625 437.035156 C 1482.570312 411.621094 1472.390625 385.332031 1474.511719 358.308594 C 1476.617188 331.488281 1495.542969 302.476562 1523.5625 300.355469 L 1523.46875 299.171875 C 1494.8125 301.339844 1475.46875 330.894531 1473.328125 358.214844 C 1471.183594 385.511719 1481.410156 411.917969 1491.296875 437.460938 L 1491.957031 439.179688 C 1502.492188 466.402344 1511.605469 493.070312 1507.464844 519.964844 C 1502.195312 554.1875 1473.574219 583.101562 1439.414062 588.738281 C 1428.335938 590.558594 1416.851562 590.097656 1405.761719 589.648438 C 1395.878906 589.246094 1385.664062 588.832031 1375.683594 590.027344 C 1354.367188 592.574219 1331.167969 606.824219 1330.160156 628.214844 C 1329.628906 639.707031 1335.464844 649.980469 1341.121094 659.925781 C 1344.257812 665.441406 1347.5 671.144531 1349.65625 677.039062 C 1354.839844 691.210938 1352.710938 708.277344 1343.960938 722.71875 C 1335.214844 737.160156 1321.082031 746.960938 1306.132812 748.949219 C 1286.128906 751.613281 1267.011719 742.960938 1248.523438 734.601562 C 1238.839844 730.222656 1228.835938 725.703125 1218.691406 722.753906 C 1186.4375 713.378906 1149.898438 720.339844 1123.347656 740.910156 C 1096.785156 761.484375 1080.921875 795.125 1081.941406 828.707031 L 1083.125 828.671875 Z M 1093.199219 838.425781 C 1092.191406 805.222656 1107.886719 771.949219 1134.152344 751.613281 C 1160.421875 731.277344 1196.546875 724.386719 1228.445312 733.65625 C 1238.507812 736.578125 1248.472656 741.089844 1258.121094 745.445312 C 1276.765625 753.875 1296.035156 762.574219 1316.371094 759.886719 C 1331.675781 757.863281 1346.140625 747.847656 1355.066406 733.101562 C 1363.988281 718.351562 1366.15625 700.890625 1360.851562 686.390625 C 1358.664062 680.414062 1355.394531 674.660156 1352.234375 669.097656 C 1346.414062 658.859375 1340.90625 649.175781 1341.429688 638.027344 C 1342.398438 617.277344 1365.066406 603.4375 1385.910156 600.953125 C 1395.785156 599.769531 1405.964844 600.183594 1415.800781 600.585938 C 1426.960938 601.035156 1438.492188 601.507812 1449.699219 599.664062 C 1484.347656 593.957031 1513.382812 564.613281 1518.722656 529.910156 C 1522.910156 502.730469 1513.738281 475.898438 1503.144531 448.519531 L 1502.480469 446.800781 C 1492.644531 421.386719 1482.464844 395.097656 1484.582031 368.074219 C 1486.691406 341.253906 1505.617188 312.242188 1533.636719 310.121094 L 1533.539062 308.9375 C 1504.882812 311.105469 1485.542969 340.660156 1483.398438 367.980469 C 1481.257812 395.277344 1491.484375 421.683594 1501.367188 447.226562 L 1502.03125 448.945312 C 1512.566406 476.167969 1521.679688 502.835938 1517.539062 529.730469 C 1512.269531 563.953125 1483.648438 592.867188 1449.488281 598.503906 C 1438.394531 600.324219 1426.925781 599.863281 1415.824219 599.414062 C 1405.941406 599.011719 1395.722656 598.597656 1385.746094 599.792969 C 1364.429688 602.339844 1341.226562 616.589844 1340.222656 637.980469 C 1339.6875 649.472656 1345.523438 659.746094 1351.183594 669.691406 C 1354.320312 675.207031 1357.5625 680.910156 1359.71875 686.804688 C 1364.902344 700.972656 1362.769531 718.042969 1354.023438 732.484375 C 1345.289062 746.925781 1331.144531 756.726562 1316.191406 758.714844 C 1296.1875 761.378906 1277.070312 752.726562 1258.582031 744.367188 C 1248.902344 739.988281 1238.898438 735.46875 1228.753906 732.519531 C 1196.5 723.144531 1159.957031 730.105469 1133.410156 750.675781 C 1106.859375 771.25 1090.984375 804.890625 1092.003906 838.472656 L 1093.1875 838.4375 Z M 1103.273438 848.1875 C 1102.265625 814.988281 1117.960938 781.714844 1144.226562 761.378906 C 1170.492188 741.042969 1206.617188 734.152344 1238.519531 743.421875 C 1248.582031 746.34375 1258.546875 750.855469 1268.195312 755.210938 C 1286.835938 763.640625 1306.109375 772.339844 1326.445312 769.652344 C 1341.75 767.628906 1356.214844 757.601562 1365.136719 742.863281 C 1374.0625 728.128906 1376.230469 710.65625 1370.925781 696.15625 C 1368.738281 690.179688 1365.46875 684.425781 1362.308594 678.863281 C 1356.484375 668.625 1350.980469 658.941406 1351.503906 647.792969 C 1352.472656 627.042969 1375.140625 613.203125 1395.984375 610.71875 C 1405.867188 609.535156 1416.035156 609.949219 1425.871094 610.351562 C 1437.035156 610.800781 1448.574219 611.273438 1459.773438 609.429688 C 1494.421875 603.722656 1523.457031 574.378906 1528.792969 539.675781 C 1532.984375 512.496094 1523.8125 485.664062 1513.21875 458.285156 L 1512.554688 456.566406 C 1502.71875 431.152344 1492.539062 404.863281 1494.65625 377.839844 C 1496.765625 351.019531 1515.691406 322.007812 1543.707031 319.886719 L 1543.613281 318.703125 C 1514.957031 320.871094 1495.617188 350.425781 1493.472656 377.746094 C 1491.332031 405.042969 1501.558594 431.449219 1511.441406 456.992188 L 1512.105469 458.710938 C 1522.640625 485.933594 1531.753906 512.601562 1527.609375 539.496094 C 1522.34375 573.714844 1493.722656 602.632812 1459.5625 608.269531 C 1448.46875 610.089844 1437 609.628906 1425.898438 609.179688 C 1416.011719 608.777344 1405.796875 608.363281 1395.820312 609.558594 C 1374.5 612.101562 1351.300781 626.355469 1350.292969 647.746094 C 1349.761719 659.238281 1355.597656 669.523438 1361.253906 679.457031 C 1364.390625 684.972656 1367.636719 690.675781 1369.789062 696.570312 C 1374.976562 710.738281 1372.84375 727.808594 1364.097656 742.25 C 1355.347656 756.691406 1341.214844 766.492188 1326.265625 768.480469 C 1306.261719 771.132812 1287.144531 762.492188 1268.65625 754.132812 C 1258.972656 749.765625 1248.972656 745.234375 1238.828125 742.285156 C 1206.570312 732.910156 1170.03125 739.871094 1143.480469 760.441406 C 1116.929688 781.015625 1101.058594 814.65625 1102.078125 848.238281 L 1103.261719 848.199219 Z M 1113.34375 857.953125 C 1112.339844 824.753906 1128.035156 791.480469 1154.300781 771.144531 C 1180.566406 750.808594 1216.691406 743.917969 1248.59375 753.1875 C 1258.652344 756.109375 1268.621094 760.621094 1278.265625 764.976562 C 1296.910156 773.402344 1316.179688 782.105469 1336.515625 779.417969 C 1351.820312 777.394531 1366.285156 767.367188 1375.210938 752.628906 C 1384.136719 737.894531 1386.300781 720.421875 1381 705.921875 C 1378.808594 699.945312 1375.542969 694.191406 1372.382812 688.628906 C 1366.558594 678.390625 1361.054688 668.707031 1361.574219 657.558594 C 1362.546875 636.808594 1385.214844 622.96875 1406.058594 620.484375 C 1415.929688 619.300781 1426.109375 619.714844 1435.945312 620.117188 C 1447.109375 620.566406 1458.636719 621.039062 1469.847656 619.195312 C 1504.492188 613.476562 1533.527344 584.144531 1538.867188 549.4375 C 1543.058594 522.261719 1533.882812 495.429688 1523.289062 468.050781 L 1522.628906 466.332031 C 1512.789062 440.917969 1502.609375 414.628906 1504.730469 387.605469 C 1506.835938 360.785156 1525.765625 331.773438 1553.78125 329.652344 L 1553.6875 328.46875 C 1525.03125 330.636719 1505.6875 360.191406 1503.546875 387.511719 C 1501.402344 414.808594 1511.632812 441.214844 1521.515625 466.757812 L 1522.175781 468.476562 C 1532.710938 495.699219 1541.828125 522.367188 1537.683594 549.261719 C 1532.417969 583.480469 1503.796875 612.398438 1469.632812 618.035156 C 1458.554688 619.855469 1447.074219 619.394531 1435.980469 618.945312 C 1426.097656 618.542969 1415.882812 618.128906 1405.902344 619.324219 C 1384.585938 621.867188 1361.386719 636.121094 1360.378906 657.507812 C 1359.847656 669.003906 1365.683594 679.289062 1371.339844 689.21875 C 1374.476562 694.738281 1377.722656 700.441406 1379.875 706.335938 C 1385.058594 720.503906 1382.929688 737.574219 1374.179688 752.015625 C 1365.433594 766.457031 1351.300781 776.257812 1336.351562 778.246094 C 1316.347656 780.898438 1297.230469 772.257812 1278.742188 763.898438 C 1269.058594 759.53125 1259.054688 754.996094 1248.914062 752.050781 C 1216.65625 742.675781 1180.117188 749.636719 1153.566406 770.207031 C 1127.003906 790.78125 1111.144531 824.421875 1112.160156 858.003906 L 1113.34375 857.964844 Z M 1113.34375 857.953125 " fill-opacity="1" fill-rule="nonzero"/></g><g clip-path="url(#42d8f26998)"><path fill="#fbfbf8" d="M -54.777344 559.035156 C -30.734375 559.023438 -11.53125 558.09375 10.351562 547.234375 C 32.484375 536.253906 54.632812 526.085938 72.289062 508.398438 C 143.445312 437.132812 96.667969 330.699219 136.296875 247.046875 C 165.015625 186.410156 246.796875 189.671875 288.097656 142.164062 C 316.316406 109.707031 300.699219 57.914062 332.195312 28.667969 C 350.601562 11.578125 436.960938 -9.191406 424.761719 -49.0625 C 417.539062 -72.671875 325.960938 -68.078125 308.746094 -68.726562 C 222.035156 -72 136.617188 -83.972656 49.675781 -82.984375 C 9.867188 -82.53125 -37.054688 -83.320312 -66.828125 -51.558594 C -96.171875 -20.261719 -92.679688 64.953125 -89.53125 105.886719 C -83.847656 179.773438 -79.410156 252.800781 -80.101562 327.003906 C -80.796875 401.089844 -87.464844 476.003906 -69.289062 548.710938 " fill-opacity="1" fill-rule="evenodd"/></g><g fill="#fbfbf8" fill-opacity="1"><g transform="translate(272.315036, 348.660312)"><g><path d="M 36.4375 0.8125 C 30.519531 0.8125 25.210938 -0.144531 20.515625 -2.0625 C 15.828125 -3.988281 12.082031 -6.835938 9.28125 -10.609375 C 6.476562 -14.378906 5 -18.914062 4.84375 -24.21875 L 25.828125 -24.21875 C 26.140625 -21.21875 27.175781 -18.925781 28.9375 -17.34375 C 30.707031 -15.769531 33.015625 -14.984375 35.859375 -14.984375 C 38.785156 -14.984375 41.09375 -15.65625 42.78125 -17 C 44.46875 -18.351562 45.3125 -20.21875 45.3125 -22.59375 C 45.3125 -24.59375 44.640625 -26.242188 43.296875 -27.546875 C 41.953125 -28.859375 40.300781 -29.9375 38.34375 -30.78125 C 36.382812 -31.632812 33.597656 -32.597656 29.984375 -33.671875 C 24.753906 -35.285156 20.484375 -36.898438 17.171875 -38.515625 C 13.867188 -40.128906 11.023438 -42.507812 8.640625 -45.65625 C 6.265625 -48.8125 5.078125 -52.925781 5.078125 -58 C 5.078125 -65.53125 7.804688 -71.429688 13.265625 -75.703125 C 18.722656 -79.972656 25.832031 -82.109375 34.59375 -82.109375 C 43.507812 -82.109375 50.695312 -79.972656 56.15625 -75.703125 C 61.613281 -71.429688 64.535156 -65.492188 64.921875 -57.890625 L 43.59375 -57.890625 C 43.4375 -60.503906 42.472656 -62.5625 40.703125 -64.0625 C 38.929688 -65.5625 36.664062 -66.3125 33.90625 -66.3125 C 31.519531 -66.3125 29.597656 -65.675781 28.140625 -64.40625 C 26.679688 -63.132812 25.953125 -61.304688 25.953125 -58.921875 C 25.953125 -56.304688 27.179688 -54.269531 29.640625 -52.8125 C 32.097656 -51.351562 35.941406 -49.773438 41.171875 -48.078125 C 46.398438 -46.316406 50.644531 -44.628906 53.90625 -43.015625 C 57.175781 -41.398438 60 -39.050781 62.375 -35.96875 C 64.757812 -32.894531 65.953125 -28.9375 65.953125 -24.09375 C 65.953125 -19.488281 64.78125 -15.300781 62.4375 -11.53125 C 60.09375 -7.757812 56.691406 -4.757812 52.234375 -2.53125 C 47.773438 -0.300781 42.507812 0.8125 36.4375 0.8125 Z M 36.4375 0.8125 "/></g></g></g><g fill="#fbfbf8" fill-opacity="1"><g transform="translate(343.2316, 348.660312)"><g><path d="M 67.796875 -33.203125 C 67.796875 -31.359375 67.679688 -29.4375 67.453125 -27.4375 L 22.828125 -27.4375 C 23.140625 -23.445312 24.425781 -20.394531 26.6875 -18.28125 C 28.957031 -16.164062 31.75 -15.109375 35.0625 -15.109375 C 39.976562 -15.109375 43.394531 -17.179688 45.3125 -21.328125 L 66.3125 -21.328125 C 65.226562 -17.097656 63.28125 -13.289062 60.46875 -9.90625 C 57.664062 -6.53125 54.148438 -3.878906 49.921875 -1.953125 C 45.703125 -0.0351562 40.976562 0.921875 35.75 0.921875 C 29.445312 0.921875 23.832031 -0.421875 18.90625 -3.109375 C 13.988281 -5.804688 10.144531 -9.648438 7.375 -14.640625 C 4.613281 -19.640625 3.234375 -25.484375 3.234375 -32.171875 C 3.234375 -38.859375 4.597656 -44.695312 7.328125 -49.6875 C 10.054688 -54.6875 13.878906 -58.53125 18.796875 -61.21875 C 23.710938 -63.914062 29.363281 -65.265625 35.75 -65.265625 C 41.976562 -65.265625 47.507812 -63.957031 52.34375 -61.34375 C 57.1875 -58.726562 60.972656 -55 63.703125 -50.15625 C 66.429688 -45.3125 67.796875 -39.660156 67.796875 -33.203125 Z M 47.625 -38.40625 C 47.625 -41.78125 46.46875 -44.46875 44.15625 -46.46875 C 41.851562 -48.46875 38.972656 -49.46875 35.515625 -49.46875 C 32.210938 -49.46875 29.425781 -48.503906 27.15625 -46.578125 C 24.882812 -44.660156 23.484375 -41.9375 22.953125 -38.40625 Z M 47.625 -38.40625 "/></g></g></g><g fill="#fbfbf8" fill-opacity="1"><g transform="translate(414.263487, 348.660312)"><g><path d="M 16.953125 -71.03125 C 13.492188 -71.03125 10.664062 -72.046875 8.46875 -74.078125 C 6.28125 -76.117188 5.1875 -78.640625 5.1875 -81.640625 C 5.1875 -84.710938 6.28125 -87.265625 8.46875 -89.296875 C 10.664062 -91.335938 13.492188 -92.359375 16.953125 -92.359375 C 20.335938 -92.359375 23.125 -91.335938 25.3125 -89.296875 C 27.5 -87.265625 28.59375 -84.710938 28.59375 -81.640625 C 28.59375 -78.640625 27.5 -76.117188 25.3125 -74.078125 C 23.125 -72.046875 20.335938 -71.03125 16.953125 -71.03125 Z M 26.875 8.296875 C 26.875 16.222656 24.875 21.929688 20.875 25.421875 C 16.875 28.921875 11.300781 30.671875 4.15625 30.671875 L -3.578125 30.671875 L -3.578125 13.953125 L 1.15625 13.953125 C 3.300781 13.953125 4.835938 13.53125 5.765625 12.6875 C 6.691406 11.84375 7.15625 10.457031 7.15625 8.53125 L 7.15625 -64.34375 L 26.875 -64.34375 Z M 26.875 8.296875 "/></g></g></g><g fill="#fbfbf8" fill-opacity="1"><g transform="translate(448.165063, 348.660312)"><g><path d="M 3.234375 -32.28125 C 3.234375 -38.894531 4.476562 -44.695312 6.96875 -49.6875 C 9.46875 -54.6875 12.867188 -58.53125 17.171875 -61.21875 C 21.484375 -63.914062 26.289062 -65.265625 31.59375 -65.265625 C 36.132812 -65.265625 40.113281 -64.34375 43.53125 -62.5 C 46.945312 -60.65625 49.578125 -58.234375 51.421875 -55.234375 L 51.421875 -64.34375 L 71.140625 -64.34375 L 71.140625 0 L 51.421875 0 L 51.421875 -9.109375 C 49.503906 -6.109375 46.832031 -3.6875 43.40625 -1.84375 C 39.988281 0 36.015625 0.921875 31.484375 0.921875 C 26.253906 0.921875 21.484375 -0.441406 17.171875 -3.171875 C 12.867188 -5.898438 9.46875 -9.78125 6.96875 -14.8125 C 4.476562 -19.851562 3.234375 -25.675781 3.234375 -32.28125 Z M 51.421875 -32.171875 C 51.421875 -37.085938 50.054688 -40.96875 47.328125 -43.8125 C 44.609375 -46.65625 41.285156 -48.078125 37.359375 -48.078125 C 33.441406 -48.078125 30.117188 -46.675781 27.390625 -43.875 C 24.660156 -41.070312 23.296875 -37.207031 23.296875 -32.28125 C 23.296875 -27.363281 24.660156 -23.460938 27.390625 -20.578125 C 30.117188 -17.703125 33.441406 -16.265625 37.359375 -16.265625 C 41.285156 -16.265625 44.609375 -17.6875 47.328125 -20.53125 C 50.054688 -23.375 51.421875 -27.253906 51.421875 -32.171875 Z M 51.421875 -32.171875 "/></g></g></g><g fill="#fbfbf8" fill-opacity="1"><g transform="translate(526.46155, 348.660312)"><g/></g></g><g fill="#fbfbf8" fill-opacity="1"><g transform="translate(550.907589, 348.660312)"><g><path d="M 26.875 -55.234375 C 28.71875 -58.234375 31.367188 -60.65625 34.828125 -62.5 C 38.285156 -64.34375 42.242188 -65.265625 46.703125 -65.265625 C 52.003906 -65.265625 56.804688 -63.914062 61.109375 -61.21875 C 65.421875 -58.53125 68.820312 -54.6875 71.3125 -49.6875 C 73.8125 -44.695312 75.0625 -38.894531 75.0625 -32.28125 C 75.0625 -25.675781 73.8125 -19.851562 71.3125 -14.8125 C 68.820312 -9.78125 65.421875 -5.898438 61.109375 -3.171875 C 56.804688 -0.441406 52.003906 0.921875 46.703125 0.921875 C 42.160156 0.921875 38.195312 0.0195312 34.8125 -1.78125 C 31.4375 -3.59375 28.789062 -6 26.875 -9 L 26.875 0 L 7.15625 0 L 7.15625 -85.328125 L 26.875 -85.328125 Z M 55 -32.28125 C 55 -37.207031 53.632812 -41.070312 50.90625 -43.875 C 48.175781 -46.675781 44.816406 -48.078125 40.828125 -48.078125 C 36.898438 -48.078125 33.570312 -46.65625 30.84375 -43.8125 C 28.113281 -40.96875 26.75 -37.085938 26.75 -32.171875 C 26.75 -27.253906 28.113281 -23.375 30.84375 -20.53125 C 33.570312 -17.6875 36.898438 -16.265625 40.828125 -16.265625 C 44.742188 -16.265625 48.082031 -17.703125 50.84375 -20.578125 C 53.613281 -23.460938 55 -27.363281 55 -32.28125 Z M 55 -32.28125 "/></g></g></g><g fill="#fbfbf8" fill-opacity="1"><g transform="translate(629.20409, 348.660312)"><g><path d="M 67.796875 -33.203125 C 67.796875 -31.359375 67.679688 -29.4375 67.453125 -27.4375 L 22.828125 -27.4375 C 23.140625 -23.445312 24.425781 -20.394531 26.6875 -18.28125 C 28.957031 -16.164062 31.75 -15.109375 35.0625 -15.109375 C 39.976562 -15.109375 43.394531 -17.179688 45.3125 -21.328125 L 66.3125 -21.328125 C 65.226562 -17.097656 63.28125 -13.289062 60.46875 -9.90625 C 57.664062 -6.53125 54.148438 -3.878906 49.921875 -1.953125 C 45.703125 -0.0351562 40.976562 0.921875 35.75 0.921875 C 29.445312 0.921875 23.832031 -0.421875 18.90625 -3.109375 C 13.988281 -5.804688 10.144531 -9.648438 7.375 -14.640625 C 4.613281 -19.640625 3.234375 -25.484375 3.234375 -32.171875 C 3.234375 -38.859375 4.597656 -44.695312 7.328125 -49.6875 C 10.054688 -54.6875 13.878906 -58.53125 18.796875 -61.21875 C 23.710938 -63.914062 29.363281 -65.265625 35.75 -65.265625 C 41.976562 -65.265625 47.507812 -63.957031 52.34375 -61.34375 C 57.1875 -58.726562 60.972656 -55 63.703125 -50.15625 C 66.429688 -45.3125 67.796875 -39.660156 67.796875 -33.203125 Z M 47.625 -38.40625 C 47.625 -41.78125 46.46875 -44.46875 44.15625 -46.46875 C 41.851562 -48.46875 38.972656 -49.46875 35.515625 -49.46875 C 32.210938 -49.46875 29.425781 -48.503906 27.15625 -46.578125 C 24.882812 -44.660156 23.484375 -41.9375 22.953125 -38.40625 Z M 47.625 -38.40625 "/></g></g></g><g fill="#fbfbf8" fill-opacity="1"><g transform="translate(700.235964, 348.660312)"><g><path d="M 89.25 -65.03125 C 97.25 -65.03125 103.609375 -62.609375 108.328125 -57.765625 C 113.054688 -52.921875 115.421875 -46.195312 115.421875 -37.59375 L 115.421875 0 L 95.828125 0 L 95.828125 -34.9375 C 95.828125 -39.09375 94.726562 -42.300781 92.53125 -44.5625 C 90.34375 -46.832031 87.328125 -47.96875 83.484375 -47.96875 C 79.640625 -47.96875 76.617188 -46.832031 74.421875 -44.5625 C 72.234375 -42.300781 71.140625 -39.09375 71.140625 -34.9375 L 71.140625 0 L 51.546875 0 L 51.546875 -34.9375 C 51.546875 -39.09375 50.445312 -42.300781 48.25 -44.5625 C 46.0625 -46.832031 43.046875 -47.96875 39.203125 -47.96875 C 35.359375 -47.96875 32.34375 -46.832031 30.15625 -44.5625 C 27.96875 -42.300781 26.875 -39.09375 26.875 -34.9375 L 26.875 0 L 7.15625 0 L 7.15625 -64.34375 L 26.875 -64.34375 L 26.875 -56.265625 C 28.863281 -58.960938 31.472656 -61.097656 34.703125 -62.671875 C 37.929688 -64.242188 41.582031 -65.03125 45.65625 -65.03125 C 50.5 -65.03125 54.820312 -63.992188 58.625 -61.921875 C 62.4375 -59.847656 65.421875 -56.890625 67.578125 -53.046875 C 69.804688 -56.578125 72.84375 -59.457031 76.6875 -61.6875 C 80.53125 -63.914062 84.71875 -65.03125 89.25 -65.03125 Z M 89.25 -65.03125 "/></g></g></g><g fill="#fbfbf8" fill-opacity="1"><g transform="translate(822.350813, 348.660312)"><g/></g></g><g fill="#fbfbf8" fill-opacity="1"><g transform="translate(846.796826, 348.660312)"><g><path d="M 36.09375 -18.453125 L 50.046875 -64.34375 L 71.03125 -64.34375 L 48.203125 0 L 23.875 0 L 1.03125 -64.34375 L 22.140625 -64.34375 Z M 36.09375 -18.453125 "/></g></g></g><g fill="#fbfbf8" fill-opacity="1"><g transform="translate(918.981851, 348.660312)"><g><path d="M 17.0625 -71.03125 C 13.601562 -71.03125 10.773438 -72.046875 8.578125 -74.078125 C 6.390625 -76.117188 5.296875 -78.640625 5.296875 -81.640625 C 5.296875 -84.710938 6.390625 -87.265625 8.578125 -89.296875 C 10.773438 -91.335938 13.601562 -92.359375 17.0625 -92.359375 C 20.445312 -92.359375 23.234375 -91.335938 25.421875 -89.296875 C 27.617188 -87.265625 28.71875 -84.710938 28.71875 -81.640625 C 28.71875 -78.640625 27.617188 -76.117188 25.421875 -74.078125 C 23.234375 -72.046875 20.445312 -71.03125 17.0625 -71.03125 Z M 26.875 -64.34375 L 26.875 0 L 7.15625 0 L 7.15625 -64.34375 Z M 26.875 -64.34375 "/></g></g></g><g fill="#fbfbf8" fill-opacity="1"><g transform="translate(952.998763, 348.660312)"><g><path d="M 46.359375 -65.03125 C 53.890625 -65.03125 59.898438 -62.585938 64.390625 -57.703125 C 68.890625 -52.828125 71.140625 -46.125 71.140625 -37.59375 L 71.140625 0 L 51.546875 0 L 51.546875 -34.9375 C 51.546875 -39.238281 50.429688 -42.582031 48.203125 -44.96875 C 45.972656 -47.351562 42.972656 -48.546875 39.203125 -48.546875 C 35.441406 -48.546875 32.445312 -47.351562 30.21875 -44.96875 C 27.988281 -42.582031 26.875 -39.238281 26.875 -34.9375 L 26.875 0 L 7.15625 0 L 7.15625 -64.34375 L 26.875 -64.34375 L 26.875 -55.8125 C 28.863281 -58.65625 31.550781 -60.898438 34.9375 -62.546875 C 38.320312 -64.203125 42.128906 -65.03125 46.359375 -65.03125 Z M 46.359375 -65.03125 "/></g></g></g><g fill="#fbfbf8" fill-opacity="1"><g transform="translate(1030.718702, 348.660312)"><g><path d="M 3.234375 -32.28125 C 3.234375 -38.894531 4.476562 -44.695312 6.96875 -49.6875 C 9.46875 -54.6875 12.867188 -58.53125 17.171875 -61.21875 C 21.484375 -63.914062 26.289062 -65.265625 31.59375 -65.265625 C 35.820312 -65.265625 39.6875 -64.378906 43.1875 -62.609375 C 46.6875 -60.847656 49.429688 -58.46875 51.421875 -55.46875 L 51.421875 -85.328125 L 71.140625 -85.328125 L 71.140625 0 L 51.421875 0 L 51.421875 -9.21875 C 49.578125 -6.144531 46.945312 -3.6875 43.53125 -1.84375 C 40.113281 0 36.132812 0.921875 31.59375 0.921875 C 26.289062 0.921875 21.484375 -0.441406 17.171875 -3.171875 C 12.867188 -5.898438 9.46875 -9.78125 6.96875 -14.8125 C 4.476562 -19.851562 3.234375 -25.675781 3.234375 -32.28125 Z M 51.421875 -32.171875 C 51.421875 -37.085938 50.054688 -40.96875 47.328125 -43.8125 C 44.609375 -46.65625 41.285156 -48.078125 37.359375 -48.078125 C 33.441406 -48.078125 30.117188 -46.675781 27.390625 -43.875 C 24.660156 -41.070312 23.296875 -37.207031 23.296875 -32.28125 C 23.296875 -27.363281 24.660156 -23.460938 27.390625 -20.578125 C 30.117188 -17.703125 33.441406 -16.265625 37.359375 -16.265625 C 41.285156 -16.265625 44.609375 -17.6875 47.328125 -20.53125 C 50.054688 -23.375 51.421875 -27.253906 51.421875 -32.171875 Z M 51.421875 -32.171875 "/></g></g></g><g fill="#fbfbf8" fill-opacity="1"><g transform="translate(1109.015203, 348.660312)"><g><path d="M 36.4375 0.921875 C 30.132812 0.921875 24.460938 -0.421875 19.421875 -3.109375 C 14.390625 -5.804688 10.429688 -9.648438 7.546875 -14.640625 C 4.671875 -19.640625 3.234375 -25.484375 3.234375 -32.171875 C 3.234375 -38.785156 4.691406 -44.609375 7.609375 -49.640625 C 10.535156 -54.671875 14.535156 -58.53125 19.609375 -61.21875 C 24.679688 -63.914062 30.367188 -65.265625 36.671875 -65.265625 C 42.972656 -65.265625 48.660156 -63.914062 53.734375 -61.21875 C 58.804688 -58.53125 62.800781 -54.671875 65.71875 -49.640625 C 68.644531 -44.609375 70.109375 -38.785156 70.109375 -32.171875 C 70.109375 -25.554688 68.628906 -19.734375 65.671875 -14.703125 C 62.710938 -9.671875 58.675781 -5.804688 53.5625 -3.109375 C 48.445312 -0.421875 42.738281 0.921875 36.4375 0.921875 Z M 36.4375 -16.140625 C 40.207031 -16.140625 43.414062 -17.523438 46.0625 -20.296875 C 48.71875 -23.066406 50.046875 -27.023438 50.046875 -32.171875 C 50.046875 -37.316406 48.753906 -41.273438 46.171875 -44.046875 C 43.597656 -46.816406 40.429688 -48.203125 36.671875 -48.203125 C 32.828125 -48.203125 29.632812 -46.835938 27.09375 -44.109375 C 24.5625 -41.378906 23.296875 -37.398438 23.296875 -32.171875 C 23.296875 -27.023438 24.539062 -23.066406 27.03125 -20.296875 C 29.53125 -17.523438 32.664062 -16.140625 36.4375 -16.140625 Z M 36.4375 -16.140625 "/></g></g></g><g fill="#fbfbf8" fill-opacity="1"><g transform="translate(1182.468619, 348.660312)"><g><path d="M 33.09375 -83.828125 L 30.78125 -28.59375 L 14.0625 -28.59375 L 11.765625 -83.828125 Z M 22.71875 0.921875 C 19.257812 0.921875 16.429688 -0.09375 14.234375 -2.125 C 12.046875 -4.164062 10.953125 -6.6875 10.953125 -9.6875 C 10.953125 -12.757812 12.046875 -15.332031 14.234375 -17.40625 C 16.429688 -19.488281 19.257812 -20.53125 22.71875 -20.53125 C 26.101562 -20.53125 28.890625 -19.488281 31.078125 -17.40625 C 33.265625 -15.332031 34.359375 -12.757812 34.359375 -9.6875 C 34.359375 -6.6875 33.265625 -4.164062 31.078125 -2.125 C 28.890625 -0.09375 26.101562 0.921875 22.71875 0.921875 Z M 22.71875 0.921875 "/></g></g></g><g fill="#fbfbf8" fill-opacity="1"><g transform="translate(348.539379, 493.72742)"><g><path d="M 36.015625 0 L 32.484375 -11.609375 L 14.6875 -11.609375 L 11.15625 0 L 0 0 L 17.21875 -49 L 29.875 -49 L 47.15625 0 Z M 30 -20.296875 C 26.726562 -30.816406 24.882812 -36.765625 24.46875 -38.140625 C 24.0625 -39.523438 23.769531 -40.617188 23.59375 -41.421875 C 22.863281 -38.578125 20.765625 -31.535156 17.296875 -20.296875 Z M 30 -20.296875 "/></g></g></g><g fill="#fbfbf8" fill-opacity="1"><g transform="translate(395.699013, 493.72742)"><g><path d="M 13.453125 -18.71875 C 13.453125 -15.03125 14.054688 -12.238281 15.265625 -10.34375 C 16.484375 -8.457031 18.460938 -7.515625 21.203125 -7.515625 C 23.910156 -7.515625 25.859375 -8.453125 27.046875 -10.328125 C 28.242188 -12.210938 28.84375 -15.007812 28.84375 -18.71875 C 28.84375 -22.414062 28.238281 -25.1875 27.03125 -27.03125 C 25.832031 -28.882812 23.863281 -29.8125 21.125 -29.8125 C 18.414062 -29.8125 16.457031 -28.890625 15.25 -27.046875 C 14.050781 -25.210938 13.453125 -22.4375 13.453125 -18.71875 Z M 39.25 -18.71875 C 39.25 -12.644531 37.644531 -7.894531 34.4375 -4.46875 C 31.238281 -1.039062 26.78125 0.671875 21.0625 0.671875 C 17.476562 0.671875 14.316406 -0.109375 11.578125 -1.671875 C 8.847656 -3.242188 6.75 -5.5 5.28125 -8.4375 C 3.8125 -11.375 3.078125 -14.800781 3.078125 -18.71875 C 3.078125 -24.820312 4.664062 -29.5625 7.84375 -32.9375 C 11.019531 -36.320312 15.492188 -38.015625 21.265625 -38.015625 C 24.847656 -38.015625 28.003906 -37.234375 30.734375 -35.671875 C 33.472656 -34.117188 35.578125 -31.882812 37.046875 -28.96875 C 38.515625 -26.050781 39.25 -22.632812 39.25 -18.71875 Z M 39.25 -18.71875 "/></g></g></g><g fill="#fbfbf8" fill-opacity="1"><g transform="translate(438.019193, 493.72742)"><g/></g></g><g fill="#fbfbf8" fill-opacity="1"><g transform="translate(455.774979, 493.72742)"><g><path d="M 39.78125 0 L 29.609375 0 L 29.609375 -21.796875 C 29.609375 -24.484375 29.128906 -26.5 28.171875 -27.84375 C 27.210938 -29.195312 25.6875 -29.875 23.59375 -29.875 C 20.75 -29.875 18.691406 -28.921875 17.421875 -27.015625 C 16.148438 -25.117188 15.515625 -21.96875 15.515625 -17.5625 L 15.515625 0 L 5.34375 0 L 5.34375 -37.3125 L 13.125 -37.3125 L 14.484375 -32.546875 L 15.046875 -32.546875 C 16.179688 -34.347656 17.742188 -35.707031 19.734375 -36.625 C 21.734375 -37.550781 24 -38.015625 26.53125 -38.015625 C 30.875 -38.015625 34.164062 -36.835938 36.40625 -34.484375 C 38.65625 -32.140625 39.78125 -28.753906 39.78125 -24.328125 Z M 39.78125 0 "/></g></g></g><g fill="#fbfbf8" fill-opacity="1"><g transform="translate(500.698452, 493.72742)"><g><path d="M 13.453125 -18.71875 C 13.453125 -15.03125 14.054688 -12.238281 15.265625 -10.34375 C 16.484375 -8.457031 18.460938 -7.515625 21.203125 -7.515625 C 23.910156 -7.515625 25.859375 -8.453125 27.046875 -10.328125 C 28.242188 -12.210938 28.84375 -15.007812 28.84375 -18.71875 C 28.84375 -22.414062 28.238281 -25.1875 27.03125 -27.03125 C 25.832031 -28.882812 23.863281 -29.8125 21.125 -29.8125 C 18.414062 -29.8125 16.457031 -28.890625 15.25 -27.046875 C 14.050781 -25.210938 13.453125 -22.4375 13.453125 -18.71875 Z M 39.25 -18.71875 C 39.25 -12.644531 37.644531 -7.894531 34.4375 -4.46875 C 31.238281 -1.039062 26.78125 0.671875 21.0625 0.671875 C 17.476562 0.671875 14.316406 -0.109375 11.578125 -1.671875 C 8.847656 -3.242188 6.75 -5.5 5.28125 -8.4375 C 3.8125 -11.375 3.078125 -14.800781 3.078125 -18.71875 C 3.078125 -24.820312 4.664062 -29.5625 7.84375 -32.9375 C 11.019531 -36.320312 15.492188 -38.015625 21.265625 -38.015625 C 24.847656 -38.015625 28.003906 -37.234375 30.734375 -35.671875 C 33.472656 -34.117188 35.578125 -31.882812 37.046875 -28.96875 C 38.515625 -26.050781 39.25 -22.632812 39.25 -18.71875 Z M 39.25 -18.71875 "/></g></g></g><g fill="#fbfbf8" fill-opacity="1"><g transform="translate(543.018633, 493.72742)"><g><path d="M 31.375 -11.078125 C 31.375 -7.253906 30.039062 -4.335938 27.375 -2.328125 C 24.71875 -0.328125 20.742188 0.671875 15.453125 0.671875 C 12.734375 0.671875 10.414062 0.484375 8.5 0.109375 C 6.59375 -0.253906 4.804688 -0.789062 3.140625 -1.5 L 3.140625 -9.90625 C 5.023438 -9.019531 7.148438 -8.273438 9.515625 -7.671875 C 11.890625 -7.078125 13.976562 -6.78125 15.78125 -6.78125 C 19.476562 -6.78125 21.328125 -7.847656 21.328125 -9.984375 C 21.328125 -10.785156 21.082031 -11.4375 20.59375 -11.9375 C 20.101562 -12.4375 19.253906 -13.003906 18.046875 -13.640625 C 16.847656 -14.273438 15.25 -15.015625 13.25 -15.859375 C 10.382812 -17.054688 8.273438 -18.164062 6.921875 -19.1875 C 5.578125 -20.21875 4.597656 -21.394531 3.984375 -22.71875 C 3.378906 -24.039062 3.078125 -25.671875 3.078125 -27.609375 C 3.078125 -30.921875 4.359375 -33.484375 6.921875 -35.296875 C 9.492188 -37.109375 13.140625 -38.015625 17.859375 -38.015625 C 22.347656 -38.015625 26.71875 -37.035156 30.96875 -35.078125 L 27.90625 -27.734375 C 26.03125 -28.535156 24.28125 -29.191406 22.65625 -29.703125 C 21.039062 -30.210938 19.382812 -30.46875 17.6875 -30.46875 C 14.6875 -30.46875 13.1875 -29.65625 13.1875 -28.03125 C 13.1875 -27.125 13.671875 -26.335938 14.640625 -25.671875 C 15.609375 -25.003906 17.726562 -24.015625 21 -22.703125 C 23.914062 -21.515625 26.050781 -20.410156 27.40625 -19.390625 C 28.757812 -18.367188 29.757812 -17.191406 30.40625 -15.859375 C 31.050781 -14.523438 31.375 -12.929688 31.375 -11.078125 Z M 31.375 -11.078125 "/></g></g></g><g fill="#fbfbf8" fill-opacity="1"><g transform="translate(576.99493, 493.72742)"><g><path d="M 31.375 -11.078125 C 31.375 -7.253906 30.039062 -4.335938 27.375 -2.328125 C 24.71875 -0.328125 20.742188 0.671875 15.453125 0.671875 C 12.734375 0.671875 10.414062 0.484375 8.5 0.109375 C 6.59375 -0.253906 4.804688 -0.789062 3.140625 -1.5 L 3.140625 -9.90625 C 5.023438 -9.019531 7.148438 -8.273438 9.515625 -7.671875 C 11.890625 -7.078125 13.976562 -6.78125 15.78125 -6.78125 C 19.476562 -6.78125 21.328125 -7.847656 21.328125 -9.984375 C 21.328125 -10.785156 21.082031 -11.4375 20.59375 -11.9375 C 20.101562 -12.4375 19.253906 -13.003906 18.046875 -13.640625 C 16.847656 -14.273438 15.25 -15.015625 13.25 -15.859375 C 10.382812 -17.054688 8.273438 -18.164062 6.921875 -19.1875 C 5.578125 -20.21875 4.597656 -21.394531 3.984375 -22.71875 C 3.378906 -24.039062 3.078125 -25.671875 3.078125 -27.609375 C 3.078125 -30.921875 4.359375 -33.484375 6.921875 -35.296875 C 9.492188 -37.109375 13.140625 -38.015625 17.859375 -38.015625 C 22.347656 -38.015625 26.71875 -37.035156 30.96875 -35.078125 L 27.90625 -27.734375 C 26.03125 -28.535156 24.28125 -29.191406 22.65625 -29.703125 C 21.039062 -30.210938 19.382812 -30.46875 17.6875 -30.46875 C 14.6875 -30.46875 13.1875 -29.65625 13.1875 -28.03125 C 13.1875 -27.125 13.671875 -26.335938 14.640625 -25.671875 C 15.609375 -25.003906 17.726562 -24.015625 21 -22.703125 C 23.914062 -21.515625 26.050781 -20.410156 27.40625 -19.390625 C 28.757812 -18.367188 29.757812 -17.191406 30.40625 -15.859375 C 31.050781 -14.523438 31.375 -12.929688 31.375 -11.078125 Z M 31.375 -11.078125 "/></g></g></g><g fill="#fbfbf8" fill-opacity="1"><g transform="translate(610.971228, 493.72742)"><g><path d="M 13.453125 -18.71875 C 13.453125 -15.03125 14.054688 -12.238281 15.265625 -10.34375 C 16.484375 -8.457031 18.460938 -7.515625 21.203125 -7.515625 C 23.910156 -7.515625 25.859375 -8.453125 27.046875 -10.328125 C 28.242188 -12.210938 28.84375 -15.007812 28.84375 -18.71875 C 28.84375 -22.414062 28.238281 -25.1875 27.03125 -27.03125 C 25.832031 -28.882812 23.863281 -29.8125 21.125 -29.8125 C 18.414062 -29.8125 16.457031 -28.890625 15.25 -27.046875 C 14.050781 -25.210938 13.453125 -22.4375 13.453125 -18.71875 Z M 39.25 -18.71875 C 39.25 -12.644531 37.644531 -7.894531 34.4375 -4.46875 C 31.238281 -1.039062 26.78125 0.671875 21.0625 0.671875 C 17.476562 0.671875 14.316406 -0.109375 11.578125 -1.671875 C 8.847656 -3.242188 6.75 -5.5 5.28125 -8.4375 C 3.8125 -11.375 3.078125 -14.800781 3.078125 -18.71875 C 3.078125 -24.820312 4.664062 -29.5625 7.84375 -32.9375 C 11.019531 -36.320312 15.492188 -38.015625 21.265625 -38.015625 C 24.847656 -38.015625 28.003906 -37.234375 30.734375 -35.671875 C 33.472656 -34.117188 35.578125 -31.882812 37.046875 -28.96875 C 38.515625 -26.050781 39.25 -22.632812 39.25 -18.71875 Z M 39.25 -18.71875 "/></g></g></g><g fill="#fbfbf8" fill-opacity="1"><g transform="translate(653.291408, 493.72742)"><g/></g></g><g fill="#fbfbf8" fill-opacity="1"><g transform="translate(671.047194, 493.72742)"><g><path d="M 39.78125 0 L 29.609375 0 L 29.609375 -21.796875 C 29.609375 -24.484375 29.128906 -26.5 28.171875 -27.84375 C 27.210938 -29.195312 25.6875 -29.875 23.59375 -29.875 C 20.75 -29.875 18.691406 -28.921875 17.421875 -27.015625 C 16.148438 -25.117188 15.515625 -21.96875 15.515625 -17.5625 L 15.515625 0 L 5.34375 0 L 5.34375 -37.3125 L 13.125 -37.3125 L 14.484375 -32.546875 L 15.046875 -32.546875 C 16.179688 -34.347656 17.742188 -35.707031 19.734375 -36.625 C 21.734375 -37.550781 24 -38.015625 26.53125 -38.015625 C 30.875 -38.015625 34.164062 -36.835938 36.40625 -34.484375 C 38.65625 -32.140625 39.78125 -28.753906 39.78125 -24.328125 Z M 39.78125 0 "/></g></g></g><g fill="#fbfbf8" fill-opacity="1"><g transform="translate(715.970668, 493.72742)"><g><path d="M 13.453125 -18.71875 C 13.453125 -15.03125 14.054688 -12.238281 15.265625 -10.34375 C 16.484375 -8.457031 18.460938 -7.515625 21.203125 -7.515625 C 23.910156 -7.515625 25.859375 -8.453125 27.046875 -10.328125 C 28.242188 -12.210938 28.84375 -15.007812 28.84375 -18.71875 C 28.84375 -22.414062 28.238281 -25.1875 27.03125 -27.03125 C 25.832031 -28.882812 23.863281 -29.8125 21.125 -29.8125 C 18.414062 -29.8125 16.457031 -28.890625 15.25 -27.046875 C 14.050781 -25.210938 13.453125 -22.4375 13.453125 -18.71875 Z M 39.25 -18.71875 C 39.25 -12.644531 37.644531 -7.894531 34.4375 -4.46875 C 31.238281 -1.039062 26.78125 0.671875 21.0625 0.671875 C 17.476562 0.671875 14.316406 -0.109375 11.578125 -1.671875 C 8.847656 -3.242188 6.75 -5.5 5.28125 -8.4375 C 3.8125 -11.375 3.078125 -14.800781 3.078125 -18.71875 C 3.078125 -24.820312 4.664062 -29.5625 7.84375 -32.9375 C 11.019531 -36.320312 15.492188 -38.015625 21.265625 -38.015625 C 24.847656 -38.015625 28.003906 -37.234375 30.734375 -35.671875 C 33.472656 -34.117188 35.578125 -31.882812 37.046875 -28.96875 C 38.515625 -26.050781 39.25 -22.632812 39.25 -18.71875 Z M 39.25 -18.71875 "/></g></g></g><g fill="#fbfbf8" fill-opacity="1"><g transform="translate(758.290848, 493.72742)"><g><path d="M 14.21875 0 L 0 -37.3125 L 10.640625 -37.3125 L 17.859375 -16.0625 C 18.660156 -13.363281 19.160156 -10.8125 19.359375 -8.40625 L 19.5625 -8.40625 C 19.675781 -10.539062 20.175781 -13.09375 21.0625 -16.0625 L 28.234375 -37.3125 L 38.890625 -37.3125 L 24.671875 0 Z M 14.21875 0 "/></g></g></g><g fill="#fbfbf8" fill-opacity="1"><g transform="translate(797.173349, 493.72742)"><g><path d="M 13.453125 -18.71875 C 13.453125 -15.03125 14.054688 -12.238281 15.265625 -10.34375 C 16.484375 -8.457031 18.460938 -7.515625 21.203125 -7.515625 C 23.910156 -7.515625 25.859375 -8.453125 27.046875 -10.328125 C 28.242188 -12.210938 28.84375 -15.007812 28.84375 -18.71875 C 28.84375 -22.414062 28.238281 -25.1875 27.03125 -27.03125 C 25.832031 -28.882812 23.863281 -29.8125 21.125 -29.8125 C 18.414062 -29.8125 16.457031 -28.890625 15.25 -27.046875 C 14.050781 -25.210938 13.453125 -22.4375 13.453125 -18.71875 Z M 39.25 -18.71875 C 39.25 -12.644531 37.644531 -7.894531 34.4375 -4.46875 C 31.238281 -1.039062 26.78125 0.671875 21.0625 0.671875 C 17.476562 0.671875 14.316406 -0.109375 11.578125 -1.671875 C 8.847656 -3.242188 6.75 -5.5 5.28125 -8.4375 C 3.8125 -11.375 3.078125 -14.800781 3.078125 -18.71875 C 3.078125 -24.820312 4.664062 -29.5625 7.84375 -32.9375 C 11.019531 -36.320312 15.492188 -38.015625 21.265625 -38.015625 C 24.847656 -38.015625 28.003906 -37.234375 30.734375 -35.671875 C 33.472656 -34.117188 35.578125 -31.882812 37.046875 -28.96875 C 38.515625 -26.050781 39.25 -22.632812 39.25 -18.71875 Z M 39.25 -18.71875 "/></g></g></g><g fill="#fbfbf8" fill-opacity="1"><g transform="translate(839.49353, 493.72742)"><g/></g></g><g fill="#fbfbf8" fill-opacity="1"><g transform="translate(857.249315, 493.72742)"><g><path d="M 53.671875 0 L 41.890625 0 L 35.28125 -25.640625 C 35.03125 -26.546875 34.609375 -28.425781 34.015625 -31.28125 C 33.429688 -34.144531 33.097656 -36.066406 33.015625 -37.046875 C 32.878906 -35.847656 32.539062 -33.914062 32 -31.25 C 31.46875 -28.59375 31.0625 -26.695312 30.78125 -25.5625 L 24.203125 0 L 12.453125 0 L 0 -48.796875 L 10.1875 -48.796875 L 16.421875 -22.15625 C 17.515625 -17.238281 18.304688 -12.976562 18.796875 -9.375 C 18.929688 -10.644531 19.234375 -12.609375 19.703125 -15.265625 C 20.179688 -17.929688 20.632812 -20 21.0625 -21.46875 L 28.171875 -48.796875 L 37.953125 -48.796875 L 45.0625 -21.46875 C 45.375 -20.238281 45.765625 -18.363281 46.234375 -15.84375 C 46.703125 -13.332031 47.054688 -11.175781 47.296875 -9.375 C 47.515625 -11.113281 47.867188 -13.28125 48.359375 -15.875 C 48.847656 -18.46875 49.296875 -20.5625 49.703125 -22.15625 L 55.90625 -48.796875 L 66.09375 -48.796875 Z M 53.671875 0 "/></g></g></g><g fill="#fbfbf8" fill-opacity="1"><g transform="translate(923.332878, 493.72742)"><g><path d="M 20.796875 -30.78125 C 18.640625 -30.78125 16.945312 -30.09375 15.71875 -28.71875 C 14.5 -27.351562 13.800781 -25.410156 13.625 -22.890625 L 27.90625 -22.890625 C 27.863281 -25.410156 27.207031 -27.351562 25.9375 -28.71875 C 24.664062 -30.09375 22.953125 -30.78125 20.796875 -30.78125 Z M 22.234375 0.671875 C 16.222656 0.671875 11.523438 -0.984375 8.140625 -4.296875 C 4.765625 -7.617188 3.078125 -12.316406 3.078125 -18.390625 C 3.078125 -24.640625 4.640625 -29.472656 7.765625 -32.890625 C 10.890625 -36.304688 15.210938 -38.015625 20.734375 -38.015625 C 26.003906 -38.015625 30.109375 -36.507812 33.046875 -33.5 C 35.984375 -30.5 37.453125 -26.351562 37.453125 -21.0625 L 37.453125 -16.125 L 13.390625 -16.125 C 13.492188 -13.226562 14.347656 -10.96875 15.953125 -9.34375 C 17.554688 -7.71875 19.804688 -6.90625 22.703125 -6.90625 C 24.941406 -6.90625 27.0625 -7.140625 29.0625 -7.609375 C 31.070312 -8.078125 33.164062 -8.820312 35.34375 -9.84375 L 35.34375 -1.96875 C 33.5625 -1.082031 31.660156 -0.421875 29.640625 0.015625 C 27.617188 0.453125 25.148438 0.671875 22.234375 0.671875 Z M 22.234375 0.671875 "/></g></g></g><g fill="#fbfbf8" fill-opacity="1"><g transform="translate(963.717278, 493.72742)"><g><path d="M 26.109375 -38.015625 C 30.515625 -38.015625 33.960938 -36.296875 36.453125 -32.859375 C 38.941406 -29.421875 40.1875 -24.707031 40.1875 -18.71875 C 40.1875 -12.5625 38.898438 -7.789062 36.328125 -4.40625 C 33.765625 -1.019531 30.265625 0.671875 25.828125 0.671875 C 21.453125 0.671875 18.015625 -0.921875 15.515625 -4.109375 L 14.8125 -4.109375 L 13.125 0 L 5.34375 0 L 5.34375 -51.9375 L 15.515625 -51.9375 L 15.515625 -39.859375 C 15.515625 -38.316406 15.382812 -35.859375 15.125 -32.484375 L 15.515625 -32.484375 C 17.898438 -36.171875 21.429688 -38.015625 26.109375 -38.015625 Z M 22.828125 -29.875 C 20.316406 -29.875 18.484375 -29.097656 17.328125 -27.546875 C 16.171875 -26.003906 15.566406 -23.453125 15.515625 -19.890625 L 15.515625 -18.796875 C 15.515625 -14.785156 16.109375 -11.910156 17.296875 -10.171875 C 18.492188 -8.441406 20.382812 -7.578125 22.96875 -7.578125 C 25.0625 -7.578125 26.722656 -8.535156 27.953125 -10.453125 C 29.191406 -12.378906 29.8125 -15.179688 29.8125 -18.859375 C 29.8125 -22.523438 29.1875 -25.273438 27.9375 -27.109375 C 26.6875 -28.953125 24.984375 -29.875 22.828125 -29.875 Z M 22.828125 -29.875 "/></g></g></g><g fill="#fbfbf8" fill-opacity="1"><g transform="translate(1006.971974, 493.72742)"><g><path d="M 31.375 -11.078125 C 31.375 -7.253906 30.039062 -4.335938 27.375 -2.328125 C 24.71875 -0.328125 20.742188 0.671875 15.453125 0.671875 C 12.734375 0.671875 10.414062 0.484375 8.5 0.109375 C 6.59375 -0.253906 4.804688 -0.789062 3.140625 -1.5 L 3.140625 -9.90625 C 5.023438 -9.019531 7.148438 -8.273438 9.515625 -7.671875 C 11.890625 -7.078125 13.976562 -6.78125 15.78125 -6.78125 C 19.476562 -6.78125 21.328125 -7.847656 21.328125 -9.984375 C 21.328125 -10.785156 21.082031 -11.4375 20.59375 -11.9375 C 20.101562 -12.4375 19.253906 -13.003906 18.046875 -13.640625 C 16.847656 -14.273438 15.25 -15.015625 13.25 -15.859375 C 10.382812 -17.054688 8.273438 -18.164062 6.921875 -19.1875 C 5.578125 -20.21875 4.597656 -21.394531 3.984375 -22.71875 C 3.378906 -24.039062 3.078125 -25.671875 3.078125 -27.609375 C 3.078125 -30.921875 4.359375 -33.484375 6.921875 -35.296875 C 9.492188 -37.109375 13.140625 -38.015625 17.859375 -38.015625 C 22.347656 -38.015625 26.71875 -37.035156 30.96875 -35.078125 L 27.90625 -27.734375 C 26.03125 -28.535156 24.28125 -29.191406 22.65625 -29.703125 C 21.039062 -30.210938 19.382812 -30.46875 17.6875 -30.46875 C 14.6875 -30.46875 13.1875 -29.65625 13.1875 -28.03125 C 13.1875 -27.125 13.671875 -26.335938 14.640625 -25.671875 C 15.609375 -25.003906 17.726562 -24.015625 21 -22.703125 C 23.914062 -21.515625 26.050781 -20.410156 27.40625 -19.390625 C 28.757812 -18.367188 29.757812 -17.191406 30.40625 -15.859375 C 31.050781 -14.523438 31.375 -12.929688 31.375 -11.078125 Z M 31.375 -11.078125 "/></g></g></g><g fill="#fbfbf8" fill-opacity="1"><g transform="translate(1040.948272, 493.72742)"><g><path d="M 4.90625 -46.96875 C 4.90625 -50.28125 6.753906 -51.9375 10.453125 -51.9375 C 14.140625 -51.9375 15.984375 -50.28125 15.984375 -46.96875 C 15.984375 -45.382812 15.519531 -44.148438 14.59375 -43.265625 C 13.675781 -42.390625 12.296875 -41.953125 10.453125 -41.953125 C 6.753906 -41.953125 4.90625 -43.625 4.90625 -46.96875 Z M 15.515625 0 L 5.34375 0 L 5.34375 -37.3125 L 15.515625 -37.3125 Z M 15.515625 0 "/></g></g></g><g fill="#fbfbf8" fill-opacity="1"><g transform="translate(1061.808007, 493.72742)"><g><path d="M 21.0625 -7.4375 C 22.84375 -7.4375 24.976562 -7.828125 27.46875 -8.609375 L 27.46875 -1.03125 C 24.9375 0.101562 21.820312 0.671875 18.125 0.671875 C 14.050781 0.671875 11.082031 -0.351562 9.21875 -2.40625 C 7.363281 -4.46875 6.4375 -7.5625 6.4375 -11.6875 L 6.4375 -29.671875 L 1.5625 -29.671875 L 1.5625 -33.984375 L 7.171875 -37.390625 L 10.109375 -45.265625 L 16.625 -45.265625 L 16.625 -37.3125 L 27.0625 -37.3125 L 27.0625 -29.671875 L 16.625 -29.671875 L 16.625 -11.6875 C 16.625 -10.238281 17.03125 -9.164062 17.84375 -8.46875 C 18.65625 -7.78125 19.726562 -7.4375 21.0625 -7.4375 Z M 21.0625 -7.4375 "/></g></g></g><g fill="#fbfbf8" fill-opacity="1"><g transform="translate(1091.478834, 493.72742)"><g><path d="M 20.796875 -30.78125 C 18.640625 -30.78125 16.945312 -30.09375 15.71875 -28.71875 C 14.5 -27.351562 13.800781 -25.410156 13.625 -22.890625 L 27.90625 -22.890625 C 27.863281 -25.410156 27.207031 -27.351562 25.9375 -28.71875 C 24.664062 -30.09375 22.953125 -30.78125 20.796875 -30.78125 Z M 22.234375 0.671875 C 16.222656 0.671875 11.523438 -0.984375 8.140625 -4.296875 C 4.765625 -7.617188 3.078125 -12.316406 3.078125 -18.390625 C 3.078125 -24.640625 4.640625 -29.472656 7.765625 -32.890625 C 10.890625 -36.304688 15.210938 -38.015625 20.734375 -38.015625 C 26.003906 -38.015625 30.109375 -36.507812 33.046875 -33.5 C 35.984375 -30.5 37.453125 -26.351562 37.453125 -21.0625 L 37.453125 -16.125 L 13.390625 -16.125 C 13.492188 -13.226562 14.347656 -10.96875 15.953125 -9.34375 C 17.554688 -7.71875 19.804688 -6.90625 22.703125 -6.90625 C 24.941406 -6.90625 27.0625 -7.140625 29.0625 -7.609375 C 31.070312 -8.078125 33.164062 -8.820312 35.34375 -9.84375 L 35.34375 -1.96875 C 33.5625 -1.082031 31.660156 -0.421875 29.640625 0.015625 C 27.617188 0.453125 25.148438 0.671875 22.234375 0.671875 Z M 22.234375 0.671875 "/></g></g></g><g fill="#fbfbf8" fill-opacity="1"><g transform="translate(1131.863234, 493.72742)"><g><path d="M 13.890625 -16.1875 L 5.734375 -16.1875 L 4.03125 -48.796875 L 15.59375 -48.796875 Z M 3.90625 -4.765625 C 3.90625 -6.640625 4.40625 -8.054688 5.40625 -9.015625 C 6.40625 -9.972656 7.863281 -10.453125 9.78125 -10.453125 C 11.625 -10.453125 13.050781 -9.960938 14.0625 -8.984375 C 15.082031 -8.003906 15.59375 -6.597656 15.59375 -4.765625 C 15.59375 -3.015625 15.078125 -1.628906 14.046875 -0.609375 C 13.023438 0.398438 11.601562 0.90625 9.78125 0.90625 C 7.90625 0.90625 6.457031 0.410156 5.4375 -0.578125 C 4.414062 -1.566406 3.90625 -2.960938 3.90625 -4.765625 Z M 3.90625 -4.765625 "/></g></g></g></svg>